<svg xmlns="http://www.w3.org/2000/svg" version="1.1" xmlns:xlink="http://www.w3.org/1999/xlink" xmlns:svgjs="http://svgjs.dev/svgjs" width="100%" height="100%" viewBox="0 0 1000 600"><rect width="1000" height="600" x="0" y="0" fill="#ff0000"/><g><circle r="166.66666666666666" cx="306.6445871988932" cy="328.866806449191" fill="#33cc11" transform="matrix(0.8929981402412592,0,0,0.8929981402412592,0,6.322560986621468)"/><path d="M365.3637562702695 302.85164069826374L357.99184040207126 302.85164069826374Q355.94250471670347 283.5821926566799 344.55730646465986 272.90856929538904Q333.1721082126162 262.26340892972826 315.35427294816793 262.26340892972826L315.35427294816793 262.26340892972826Q304.4814086174663 262.26340892972826 294.97476807700986 266.874414221806Q285.43966454092333 271.4854195138836 278.26698964213585 280.0812441941765Q271.0943147433484 288.70553187009955 266.9956433726127 300.8023050128959Q262.896972001877 312.87061516006213 262.896972001877 328.04139183091024L262.896972001877 328.04139183091024Q262.896972001877 347.31083987249406 270.2688878700752 362.05467160889054Q277.64080373827346 376.8269663409171 290.13605881989133 385.0243090823885Q302.6597768971393 393.22165182385993 317.8020905723573 393.22165182385993L317.8020905723573 393.22165182385993Q331.12277252724834 393.22165182385993 344.04497254331784 387.15903375464666Q356.96717255938734 381.1248786810636 365.16451530085874 369.65429144212965L365.16451530085874 369.65429144212965L370.48709548368913 373.9522037822761Q361.66356683835534 386.04897692507245 351.4168884115161 392.59546591999754Q341.17020998467683 399.1704179105527 331.037383540358 401.5043835522216Q320.8760941004091 403.8668121895207 312.4795103895269 403.8668121895207L312.4795103895269 403.8668121895207Q297.10949274926804 403.8668121895207 284.301144715719 398.34499103727956Q271.4927966821699 392.7947068894083 262.18539711112425 382.8611214145002Q252.8495345444485 372.9275359395922 247.8400473135493 359.72070596722165Q242.80209708702 346.4854129992209 242.80209708702 331.115395358962L242.80209708702 331.115395358962Q242.80209708702 316.5708045919763 247.2138614096869 302.85164069826374Q251.6256257323538 289.1040138089211 260.4206913820575 278.03190850880867Q269.2442200273913 266.98826620432635 282.67875396480275 260.4133142137712Q296.0848249065841 253.86682521884612 313.9311231666625 253.86682521884612L313.9311231666625 253.86682521884612Q325.4017104055964 253.86682521884612 335.64838883243567 256.94082874689786Q345.8950672592749 260.01483227494964 355.316318812841 266.36208030046396L355.316318812841 266.36208030046396L354.2916509701571 255.28997500035157L365.3637562702695 255.28997500035157L365.3637562702695 302.85164069826374Z " fill="#ffffff" transform="matrix(0.8929981402412592,0,0,0.8929981402412592,0,6.322560986621468)"/><path d="M681.3002534241411 298.0666319565664L673.3565105443226 298.0666319565664Q673.1528248294555 285.69999926820424 670.8249880881167 277.5525706735185Q668.5262493060447 269.37604411956613 662.7648533712313 265.27323186295655Q657.0034574364179 261.1995175656137 646.1208206706591 261.40320328048085L646.1208206706591 261.40320328048085L628.3128695994176 261.40320328048085L628.1091838845504 375.5835954431475Q628.1091838845504 381.2576975001607 627.9927920474834 385.3314117975036Q627.8764002104165 389.4051260948464 627.4690287806823 392.1403342659195L627.4690287806823 392.1403342659195Q631.8628206299591 391.9366485510524 636.1693186014359 391.73296283618515Q640.4467186136458 391.5001791620514 644.8696084221895 391.29649344718416L644.8696084221895 391.29649344718416L644.8696084221895 400.5205465347391L595.6358613428745 400.5205465347391L595.6358613428745 393.5952322292562Q603.5796042226931 393.1878607995219 606.4021062715663 389.8415954838474Q609.2537062797063 386.4953301681729 609.5446858723737 380.7339342333595Q609.8647634243077 374.97253829854606 609.8647634243077 367.8435382781961L609.8647634243077 367.8435382781961L610.0684491391748 261.60688899534796L588.5068613225245 261.83967266948184Q575.296387815427 261.83967266948184 569.8550694325477 270.6272563680357Q564.4137510496682 279.4148400665896 564.4137510496682 298.0666319565664L564.4137510496682 298.0666319565664L556.6445959254502 298.0666319565664L557.9249061331864 253.8668318303966L680.0490411756716 253.8668318303966L681.3002534241411 298.0666319565664ZM744.7920005441563 400.5205465347391L697.6533065320461 400.5205465347391L697.6533065320461 393.5952322292562Q705.6261473711313 393.1878607995219 708.5359432978048 389.92888936164763Q711.474837183745 386.69901588304015 711.7949147356792 380.9376199482266Q712.1149922876132 375.17622401341316 712.1149922876132 367.8435382781961L712.1149922876132 367.8435382781961L712.1149922876132 277.31978699938463Q712.1149922876132 273.1296808649749 712.3186780024803 269.2596522824992Q712.5223637173476 265.3896237000235 712.7260494322147 262.24704409921617L712.7260494322147 262.24704409921617Q708.9724126868059 262.4507298140833 705.1896779821304 262.6544155289504Q701.4360412367216 262.8871992030843 697.6533065320461 263.0908849179515L697.6533065320461 263.0908849179515L697.6533065320461 253.8668318303966L744.7920005441563 253.8668318303966L744.7920005441563 260.7921461358794Q737.0519433792049 260.9958318507465 733.9966576561976 264.342097166421Q730.9704698924572 267.6883624820955 730.6503923405232 273.36246453910877Q730.330314788589 279.00746863685526 730.330314788589 286.54384008693955L730.330314788589 286.54384008693955L730.330314788589 320.9085299809532L746.0432127926258 320.9085299809532L772.231376132687 279.6476237407235Q774.9665843037601 275.4575176063137 778.9530047233027 270.42357065316855Q782.9103271835786 265.3896237000235 787.1004333179883 262.04335838434895L787.1004333179883 262.04335838434895Q783.957853717181 262.24704409921617 780.7279802385735 262.24704409921617Q777.4690088006992 262.24704409921617 774.3264291998919 262.4507298140833L774.3264291998919 262.4507298140833L774.3264291998919 253.8668318303966L819.370070144797 253.8668318303966L819.370070144797 260.7921461358794Q810.5824864462431 261.40320328048085 803.6571721407604 263.70194206255286Q796.7609557945443 266.02977880389165 790.4757965929296 271.7911747387051Q784.1906373913148 277.5525706735185 777.061637370965 289.0753625431455L777.061637370965 289.0753625431455L756.5184781286503 321.7523707996885Q762.5999516153979 325.3023218302301 766.3826863200734 330.0161912314411Q770.136323065482 334.7300606326521 773.9190577701577 339.56032187093L773.9190577701577 339.56032187093L797.3720129391456 370.78243216413625Q805.344853778231 381.2576975001607 810.4660946091763 386.17525261623894Q815.6164333993884 391.09280773231706 819.6901476967312 392.3440199807866Q823.763861994074 393.5952322292562 828.1867518026177 393.5952322292562L828.1867518026177 393.5952322292562L828.1867518026177 400.5205465347391L802.609645607158 400.5205465347391Q800.5145925399531 400.5205465347391 797.0519353872116 397.5816526487988Q793.6183761937368 394.64275876285865 789.6319557741942 389.92888936164763Q785.6455353546517 385.2150199604366 781.455429220242 379.9773872924244L781.455429220242 379.9773872924244L756.3147924137832 346.0491667874119Q752.3283719942406 340.81153411939965 748.3419515746978 336.09766471818864Q744.3846291144218 331.3837953169776 740.6018944097464 329.08505653490556L740.6018944097464 329.08505653490556L730.330314788589 329.28874224977267L730.330314788589 375.5835954431475Q730.330314788589 381.2576975001607 730.2430209107888 385.3314117975036Q730.1266290737219 389.4051260948464 729.7192576439877 392.1403342659195L729.7192576439877 392.1403342659195Q733.4728943893965 391.9366485510524 737.255629094072 391.73296283618515Q741.0092658394808 391.5001791620514 744.7920005441563 391.29649344718416L744.7920005441563 391.29649344718416L744.7920005441563 400.5205465347391ZM965.4127277045382 403.86681185041357L955.3448337982479 403.86681185041357L871.7463968249194 291.5777870400847Q869.8550294725817 289.0753625431455 868.0800539573108 286.66023192400644Q866.30507844204 284.2451013048675 864.4137110897022 281.7426768079283L864.4137110897022 281.7426768079283L864.2100253748351 281.7426768079283L864.8501804787034 371.3934893087377Q864.8501804787034 376.6311219767499 864.8501804787034 381.86875464476213Q864.8501804787034 387.10638731277436 864.4137110897022 392.1403342659195L864.4137110897022 392.1403342659195Q868.1964457943777 391.9366485510524 871.9500825397865 391.73296283618515Q875.732817244462 391.5001791620514 879.5155519491375 391.29649344718416L879.5155519491375 391.29649344718416L879.5155519491375 400.5205465347391L841.1644416355814 400.5205465347391L841.1644416355814 393.5952322292562Q847.653286552063 393.5952322292562 850.4757886009363 390.77273018038295Q853.3273886090765 387.9502281315097 854.1421314685449 384.080199549034Q854.9859722872802 380.2101709665583 854.9859722872802 377.067591365751L854.9859722872802 377.067591365751L855.1896580021473 276.2722604657822Q855.1896580021473 272.7223094352406 855.1896580021473 269.172358404699Q855.1896580021473 265.59330941489065 855.1896580021473 262.24704409921617L855.1896580021473 262.24704409921617Q851.843392686473 262.4507298140833 848.2934416559312 262.6544155289504Q844.7143926661229 262.8871992030843 841.1644416355814 263.0908849179515L841.1644416355814 263.0908849179515L841.1644416355814 253.8668318303966L866.1013927271729 253.8668318303966L944.6658827473564 359.0268566203755Q947.3719929591628 362.60590561018387 949.9908092931687 366.15585664072546Q952.6096256271749 369.73490563053383 955.3448337982479 373.2848566610754L955.3448337982479 373.2848566610754L955.548519513115 373.2848566610754L955.7522052279824 277.31978699938463Q955.7522052279824 273.1296808649749 955.9849889021161 269.2596522824992Q956.1886746169832 265.3896237000235 956.3923603318503 262.24704409921617L956.3923603318503 262.24704409921617Q952.6096256271749 262.4507298140833 948.855988881766 262.6544155289504Q945.0732541770906 262.8871992030843 941.319617431682 263.0908849179515L941.319617431682 263.0908849179515L941.319617431682 253.8668318303966L979.8453155008385 253.8668318303966L979.8453155008385 260.7921461358794Q972.1052583358871 260.9958318507465 969.166364449947 264.342097166421Q966.2274705640068 267.6883624820955 966.0237848491397 273.36246453910877Q965.8200991342724 279.00746863685526 965.8200991342724 286.54384008693955L965.8200991342724 286.54384008693955L965.4127277045382 403.86681185041357Z " fill="#ffffff" transform="matrix(0.8929981402412592,0,0,0.8929981402412592,0,6.322560986621468)"/></g></svg>